<svg xmlns="http://www.w3.org/2000/svg" version="1.1">
  <defs>
    <g id="notifications">
        <path fill-rule="evenodd" clip-rule="evenodd" d="M14.5865 24.5C15.6865 24.5 16.5865 23.6 16.5865 22.5H12.5865C12.5865 23.6 13.4765 24.5 14.5865 24.5ZM20.5865 18.5V13.5C20.5865 10.43 18.9465 7.86 16.0865 7.18V6.5C16.0865 5.67 15.4165 5 14.5865 5C13.7565 5 13.0865 5.67 13.0865 6.5V7.18C10.2165 7.86 8.58648 10.42 8.58648 13.5V18.5L7.29648 19.79C6.66648 20.42 7.10648 21.5 7.99648 21.5H21.1665C22.0565 21.5 22.5065 20.42 21.8765 19.79L20.5865 18.5Z" />
    </g>
    <g id="search">
        <path fill-rule="evenodd" clip-rule="evenodd" d="M18.5006 17.0006H17.7106L17.4306 16.7306C18.6306 15.3306 19.2506 13.4206 18.9106 11.3906C18.4406 8.61063 16.1206 6.39063 13.3206 6.05063C9.09063 5.53063 5.53063 9.09063 6.05063 13.3206C6.39063 16.1206 8.61063 18.4406 11.3906 18.9106C13.4206 19.2506 15.3306 18.6306 16.7306 17.4306L17.0006 17.7106V18.5006L21.2506 22.7506C21.6606 23.1606 22.3306 23.1606 22.7406 22.7506C23.1506 22.3406 23.1506 21.6706 22.7406 21.2606L18.5006 17.0006ZM12.5006 17.0006C10.0106 17.0006 8.00063 14.9906 8.00063 12.5006C8.00063 10.0106 10.0106 8.00063 12.5006 8.00063C14.9906 8.00063 17.0006 10.0106 17.0006 12.5006C17.0006 14.9906 14.9906 17.0006 12.5006 17.0006Z" />
    </g>
    <g id="exit">
        <path fill-rule="evenodd" clip-rule="evenodd" d="M15 5C9.47 5 5 9.47 5 15C5 20.53 9.47 25 15 25C20.53 25 25 20.53 25 15C25 9.47 20.53 5 15 5ZM19.3 19.3C18.91 19.69 18.28 19.69 17.89 19.3L15 16.41L12.11 19.3C11.72 19.69 11.09 19.69 10.7 19.3C10.5127 19.1132 10.4075 18.8595 10.4075 18.595C10.4075 18.3305 10.5127 18.0768 10.7 17.89L13.59 15L10.7 12.11C10.5127 11.9232 10.4075 11.6695 10.4075 11.405C10.4075 11.1405 10.5127 10.8868 10.7 10.7C11.09 10.31 11.72 10.31 12.11 10.7L15 13.59L17.89 10.7C18.28 10.31 18.91 10.31 19.3 10.7C19.69 11.09 19.69 11.72 19.3 12.11L16.41 15L19.3 17.89C19.68 18.27 19.68 18.91 19.3 19.3Z" />
    </g>
    <g id="new">
        <path fill-rule="evenodd" clip-rule="evenodd" d="M9 5C7.9 5 7.01 5.9 7.01 7L7 23C7 24.1 7.89 25 8.99 25H21C22.1 25 23 24.1 23 23V11.83C23 11.3 22.79 10.79 22.41 10.42L17.58 5.59C17.21 5.21 16.7 5 16.17 5H9ZM16 11V6.5L21.5 12H17C16.45 12 16 11.55 16 11Z" fill-opacity="0.5"/>
    </g>
    <g id="folder">
        <path fill-rule="evenodd" clip-rule="evenodd" d="M13.59 7.59C13.21 7.21 12.7 7 12.17 7H7C5.9 7 5.01 7.9 5.01 9L5 21C5 22.1 5.9 23 7 23H23C24.1 23 25 22.1 25 21V11C25 9.9 24.1 9 23 9H15L13.59 7.59Z" />
    </g>
    <g id="add">
        <path fill-rule="evenodd" clip-rule="evenodd" d="M15 5C9.48 5 5 9.48 5 15C5 20.52 9.48 25 15 25C20.52 25 25 20.52 25 15C25 9.48 20.52 5 15 5ZM19 16H16V19C16 19.55 15.55 20 15 20C14.45 20 14 19.55 14 19V16H11C10.45 16 10 15.55 10 15C10 14.45 10.45 14 11 14H14V11C14 10.45 14.45 10 15 10C15.55 10 16 10.45 16 11V14H19C19.55 14 20 14.45 20 15C20 15.55 19.55 16 19 16Z" />
    </g>
    <g id="sort_table">
        <path fill-rule="evenodd" clip-rule="evenodd" d="M21.4667 4.66667H6.53341C5.50675 4.66667 4.66675 5.50667 4.66675 6.53334V21.4667C4.66675 22.4933 5.50675 23.3333 6.53341 23.3333H21.4667C22.4934 23.3333 23.3334 22.4933 23.3334 21.4667V6.53334C23.3334 5.50667 22.4934 4.66667 21.4667 4.66667ZM10.2667 21.4667H7.46675C6.95341 21.4667 6.53341 21.0467 6.53341 20.5333V17.7333H10.2667V21.4667ZM10.2667 15.8667H6.53341V12.1333H10.2667V15.8667ZM10.2667 10.2667H6.53341V7.46667C6.53341 6.95334 6.95341 6.53334 7.46675 6.53334H10.2667V10.2667ZM15.8667 21.4667H12.1334V17.7333H15.8667V21.4667ZM15.8667 15.8667H12.1334V12.1333H15.8667V15.8667ZM15.8667 10.2667H12.1334V6.53334H15.8667V10.2667ZM20.5334 21.4667H17.7334V17.7333H21.4667V20.5333C21.4667 21.0467 21.0467 21.4667 20.5334 21.4667ZM21.4667 15.8667H17.7334V12.1333H21.4667V15.8667ZM21.4667 10.2667H17.7334V6.53334H20.5334C21.0467 6.53334 21.4667 6.95334 21.4667 7.46667V10.2667Z" />
    </g>
    <g id="sort_list">
        <path fill-rule="evenodd" clip-rule="evenodd" d="M7.0001 13.0667C6.22543 13.0667 5.6001 13.692 5.6001 14.4667C5.6001 15.2413 6.22543 15.8667 7.0001 15.8667C7.77476 15.8667 8.4001 15.2413 8.4001 14.4667C8.4001 13.692 7.77476 13.0667 7.0001 13.0667ZM7.0001 7.46666C6.22543 7.46666 5.6001 8.09199 5.6001 8.86666C5.6001 9.64133 6.22543 10.2667 7.0001 10.2667C7.77476 10.2667 8.4001 9.64133 8.4001 8.86666C8.4001 8.09199 7.77476 7.46666 7.0001 7.46666ZM7.0001 18.6667C6.22543 18.6667 5.6001 19.3013 5.6001 20.0667C5.6001 20.832 6.23476 21.4667 7.0001 21.4667C7.76543 21.4667 8.4001 20.832 8.4001 20.0667C8.4001 19.3013 7.77476 18.6667 7.0001 18.6667ZM10.7334 21H21.9334C22.4468 21 22.8668 20.58 22.8668 20.0667C22.8668 19.5533 22.4468 19.1333 21.9334 19.1333H10.7334C10.2201 19.1333 9.8001 19.5533 9.8001 20.0667C9.8001 20.58 10.2201 21 10.7334 21ZM10.7334 15.4H21.9334C22.4468 15.4 22.8668 14.98 22.8668 14.4667C22.8668 13.9533 22.4468 13.5333 21.9334 13.5333H10.7334C10.2201 13.5333 9.8001 13.9533 9.8001 14.4667C9.8001 14.98 10.2201 15.4 10.7334 15.4ZM9.8001 8.86666C9.8001 9.37999 10.2201 9.79999 10.7334 9.79999H21.9334C22.4468 9.79999 22.8668 9.37999 22.8668 8.86666C22.8668 8.35333 22.4468 7.93333 21.9334 7.93333H10.7334C10.2201 7.93333 9.8001 8.35333 9.8001 8.86666Z" />
    </g>
    <g id="delete">
        <path fill-rule="evenodd" clip-rule="evenodd" d="M8.39989 20.5333C8.39989 21.56 9.23989 22.4 10.2666 22.4H17.7332C18.7599 22.4 19.5999 21.56 19.5999 20.5333V11.2C19.5999 10.1733 18.7599 9.33334 17.7332 9.33334H10.2666C9.23989 9.33334 8.39989 10.1733 8.39989 11.2V20.5333ZM19.5999 6.53334H17.2666L16.6039 5.87067C16.4359 5.70267 16.1932 5.60001 15.9506 5.60001H12.0492C11.8066 5.60001 11.5639 5.70267 11.3959 5.87067L10.7332 6.53334H8.39989C7.88655 6.53334 7.46655 6.95334 7.46655 7.46667C7.46655 7.98001 7.88655 8.40001 8.39989 8.40001H19.5999C20.1132 8.40001 20.5332 7.98001 20.5332 7.46667C20.5332 6.95334 20.1132 6.53334 19.5999 6.53334Z" />
    </g>
  </defs>
</svg>